# xmcd CD database file
#
# Track frame offsets:
#	150
#	15370
#	32802
#	52446
#	67241
#	78548
#	98464
#	115519
#	128356
#	142683
#	160867
#	178470
#	194433
#	209855
#	224034
#	242957
#	266188
#
# Disc length: 4023 seconds
#
# Revision: 0
# Processed by: cddbd v1.5.2PL0 Copyright (c) Steve Scherf et al.
# Submitted via: CDex 1.70beta2
#
DISCID=050fb511
DTITLE=Boss Hoss - Internashville Urban Hymns
DYEAR=2005
DGENRE=Country
TTITLE0=Yee Haw
TTITLE1=Hey Ya!
TTITLE2=Toxic
TTITLE3=Loser
TTITLE4=Sabotage
TTITLE5=Hot in here
TTITLE6=Seven nation Army
TTITLE7=Drowned in Lake Daniels
TTITLE8=A little less conversation
TTITLE9=Hey Joe
TTITLE10=Eyes without a face
TTITLE11=Unbelievable
TTITLE12=All the things she said
TTITLE13=Remedy
TTITLE14=Word up
TTITLE15=Like ice in the sunshine
TTITLE16=no song
EXTD=YEAR: 2005
EXTT0=
EXTT1=
EXTT2=
EXTT3=
EXTT4=
EXTT5=
EXTT6=
EXTT7=
EXTT8=
EXTT9=
EXTT10=
EXTT11=
EXTT12=
EXTT13=
EXTT14=
EXTT15=
EXTT16=
PLAYORDER=
